<?xml version="1.0" encoding="UTF-8" standalone="no"?>
<svg width="46px" height="46px" viewBox="0 0 46 46" version="1.1" xmlns="http://www.w3.org/2000/svg" xmlns:xlink="http://www.w3.org/1999/xlink" xmlns:sketch="http://www.bohemiancoding.com/sketch/ns">
    <!-- Generator: Sketch 3.0 (7573) - http://www.bohemiancoding.com/sketch -->
    <title>disc</title>
    <description>Created with Sketch.</description>
    <defs></defs>
    <g id="Page-1" stroke="none" stroke-width="1" fill="none" fill-rule="evenodd" sketch:type="MSPage">
        <g id="Artboard-1-copy-3" sketch:type="MSArtboardGroup" transform="translate(-250.000000, -283.000000)">
            <g id="Website" sketch:type="MSLayerGroup" transform="translate(24.000000, 0.000000)">
                <g id="disc" transform="translate(226.000000, 283.000000)" sketch:type="MSShapeGroup">
                    <path d="M23,0 C10.2977273,0 0,10.2977273 0,23 C0,35.7027955 10.2977273,46 23,46 C35.7027955,46 46,35.7027955 46,23 C46,10.2977273 35.7027955,0 23,0 L23,0 Z M23,41.8181818 C12.6071364,41.8181818 4.18181818,33.3928636 4.18181818,23 C4.18181818,12.6071364 12.6071364,4.18181818 23,4.18181818 C33.3928636,4.18181818 41.8181818,12.6071364 41.8181818,23 C41.8181818,33.3928636 33.3928636,41.8181818 23,41.8181818 L23,41.8181818 Z M23,14.6363636 C18.3811818,14.6363636 14.6363636,18.3811818 14.6363636,23 C14.6363636,27.6193409 18.3811818,31.3636364 23,31.3636364 C27.6193409,31.3636364 31.3636364,27.6193409 31.3636364,23 C31.3636364,18.3811818 27.6193409,14.6363636 23,14.6363636 L23,14.6363636 Z M23,27.1818182 C20.6905909,27.1818182 18.8181818,25.3094091 18.8181818,23 C18.8181818,20.6905909 20.6905909,18.8181818 23,18.8181818 C25.3094091,18.8181818 27.1818182,20.6905909 27.1818182,23 C27.1818182,25.3094091 25.3094091,27.1818182 23,27.1818182 L23,27.1818182 Z" id="Shape" fill="#30B9FF"></path>
                    <path d="M20.2595552,9.26809683 C14.847224,10.3421848 10.5580625,14.5362005 9.34503609,19.8971785" id="Oval-4" stroke="#30B9FF" stroke-width="3" stroke-linecap="round"></path>
                </g>
            </g>
        </g>
    </g>
</svg>