<?xml version="1.0" encoding="UTF-8" standalone="no"?>
<svg width="46px" height="38px" viewBox="0 0 46 38" version="1.1" xmlns="http://www.w3.org/2000/svg" xmlns:xlink="http://www.w3.org/1999/xlink" xmlns:sketch="http://www.bohemiancoding.com/sketch/ns">
    <!-- Generator: Sketch 3.0 (7573) - http://www.bohemiancoding.com/sketch -->
    <title>mail</title>
    <description>Created with Sketch.</description>
    <defs></defs>
    <g id="Page-1" stroke="none" stroke-width="1" fill="none" fill-rule="evenodd" sketch:type="MSPage">
        <g id="mail" sketch:type="MSLayerGroup" fill="#000000">
            <path d="M39.7272727,0 L6.27272727,0 C2.80861364,0 0,2.83575 0,6.33333333 L0,31.6666667 C0,35.16425 2.80861364,38 6.27272727,38 L39.7272727,38 C43.1913864,38 46,35.16425 46,31.6666667 L46,6.33333333 C46,2.83575 43.1913864,0 39.7272727,0 L39.7272727,0 Z M39.7272727,4.22222222 C39.9687727,4.22222222 40.2008636,4.26338889 40.4162273,4.33991667 L23,18.4078333 L5.58377273,4.33991667 C5.79913636,4.26338889 6.03122727,4.22222222 6.27272727,4.22222222 L39.7272727,4.22222222 L39.7272727,4.22222222 Z M39.7272727,33.7777778 L6.27272727,33.7777778 C5.11802273,33.7777778 4.18181818,32.8325278 4.18181818,31.6666667 L4.18181818,8.61438889 L21.6937045,22.7593611 C22.0752955,23.0681111 22.5373864,23.2222222 23,23.2222222 C23.4626136,23.2222222 23.9247045,23.0681111 24.3062955,22.7593611 L41.8181818,8.61438889 L41.8181818,31.6666667 C41.8181818,32.8325278 40.8819773,33.7777778 39.7272727,33.7777778 L39.7272727,33.7777778 Z" id="Shape" sketch:type="MSShapeGroup"></path>
        </g>
    </g>
</svg>