<?xml version="1.0" encoding="UTF-8" standalone="no"?>
<svg width="303px" height="48px" viewBox="0 0 303 48" version="1.1" xmlns="http://www.w3.org/2000/svg" xmlns:xlink="http://www.w3.org/1999/xlink" xmlns:sketch="http://www.bohemiancoding.com/sketch/ns">
    <!-- Generator: Sketch 3.0 (7573) - http://www.bohemiancoding.com/sketch -->
    <title>social_v3</title>
    <description>Created with Sketch.</description>
    <defs></defs>
    <g id="Page-1" stroke="none" stroke-width="1" fill="none" fill-rule="evenodd" sketch:type="MSPage">
        <g id="social_v3" sketch:type="MSLayerGroup">
            <g id="mail" transform="translate(278.000000, 0.000000)" sketch:type="MSShapeGroup">
                <path d="M21.5909091,0 L3.40909091,0 C1.52642045,0 0,1.4925 0,3.33333333 L0,16.6666667 C0,18.5075 1.52642045,20 3.40909091,20 L21.5909091,20 C23.4735795,20 25,18.5075 25,16.6666667 L25,3.33333333 C25,1.4925 23.4735795,0 21.5909091,0 L21.5909091,0 Z M21.5909091,2.22222222 C21.7221591,2.22222222 21.8482955,2.24388889 21.9653409,2.28416667 L12.5,9.68833333 L3.03465909,2.28416667 C3.15170455,2.24388889 3.27784091,2.22222222 3.40909091,2.22222222 L21.5909091,2.22222222 L21.5909091,2.22222222 Z M21.5909091,17.7777778 L3.40909091,17.7777778 C2.78153409,17.7777778 2.27272727,17.2802778 2.27272727,16.6666667 L2.27272727,4.53388889 L11.7900568,11.9786111 C11.9974432,12.1411111 12.2485795,12.2222222 12.5,12.2222222 C12.7514205,12.2222222 13.0025568,12.1411111 13.2099432,11.9786111 L22.7272727,4.53388889 L22.7272727,16.6666667 C22.7272727,17.2802778 22.2184659,17.7777778 21.5909091,17.7777778 L21.5909091,17.7777778 Z" id="Shape" fill="#D5DCE1"></path>
                <path d="M21.5909091,28 L3.40909091,28 C1.52642045,28 0,29.4925 0,31.3333333 L0,44.6666667 C0,46.5075 1.52642045,48 3.40909091,48 L21.5909091,48 C23.4735795,48 25,46.5075 25,44.6666667 L25,31.3333333 C25,29.4925 23.4735795,28 21.5909091,28 L21.5909091,28 Z M21.5909091,30.2222222 C21.7221591,30.2222222 21.8482955,30.2438889 21.9653409,30.2841667 L12.5,37.6883333 L3.03465909,30.2841667 C3.15170455,30.2438889 3.27784091,30.2222222 3.40909091,30.2222222 L21.5909091,30.2222222 L21.5909091,30.2222222 Z M21.5909091,45.7777778 L3.40909091,45.7777778 C2.78153409,45.7777778 2.27272727,45.2802778 2.27272727,44.6666667 L2.27272727,32.5338889 L11.7900568,39.9786111 C11.9974432,40.1411111 12.2485795,40.2222222 12.5,40.2222222 C12.7514205,40.2222222 13.0025568,40.1411111 13.2099432,39.9786111 L22.7272727,32.5338889 L22.7272727,44.6666667 C22.7272727,45.2802778 22.2184659,45.7777778 21.5909091,45.7777778 L21.5909091,45.7777778 Z" id="Shape-2" fill="#30B9FF"></path>
            </g>
            <g id="linkedin" transform="translate(210.000000, 0.000000)" sketch:type="MSShapeGroup">
                <path d="M18.506,0.261568627 L1.658,0.261568627 C0.8516,0.261568627 0.1976,0.887450979 0.1976,1.65882353 L0.1976,18.3698039 C0.1976,19.1407844 0.8516,19.7666666 1.658,19.7666666 L18.506,19.7666666 C19.3136,19.7666666 19.9676,19.1403922 19.9676,18.3698039 L19.9676,1.65882353 C19.9676,0.887058825 19.3132,0.261568627 18.506,0.261568627 L18.506,0.261568627 L18.506,0.261568627 Z M6.19,16.5898039 L3.204,16.5898039 L3.204,7.78235295 L6.19,7.78235295 L6.19,16.5898039 L6.19,16.5898039 Z M4.6972,6.57921566 L4.6772,6.57921566 C3.6756,6.57921566 3.0276,5.90274508 3.0276,5.05764705 C3.0276,4.1937255 3.6956,3.53607844 4.7168,3.53607844 C5.7384,3.53607844 6.3668,4.1937255 6.3868,5.05764705 C6.3868,5.90274508 5.738,6.57921566 4.6972,6.57921566 L4.6972,6.57921566 L4.6972,6.57921566 Z M16.9576,16.5898039 L13.9716,16.5898039 L13.9716,11.8768627 C13.9716,10.6933334 13.5396,9.88549018 12.4592,9.88549018 C11.6344,9.88549018 11.1432,10.4301961 10.9268,10.9564705 C10.848,11.1443137 10.8288,11.4070588 10.8288,11.6705883 L10.8288,16.5894117 L7.8428,16.5894117 C7.8428,16.5894117 7.882,8.607451 7.8428,7.78196079 L10.8288,7.78196079 L10.8288,9.02862745 C11.2256,8.42862745 11.9352,7.57411766 13.5204,7.57411766 C15.4848,7.57411766 16.958,8.83333334 16.958,11.5388235 L16.958,16.5898039 L16.9576,16.5898039 L16.9576,16.5898039 Z" id="Shape-4" fill="#D5DCE1"></path>
                <path d="M18.506,28.2615686 L1.658,28.2615686 C0.8516,28.2615686 0.1976,28.887451 0.1976,29.6588235 L0.1976,46.3698039 C0.1976,47.1407844 0.8516,47.7666666 1.658,47.7666666 L18.506,47.7666666 C19.3136,47.7666666 19.9676,47.1403922 19.9676,46.3698039 L19.9676,29.6588235 C19.9676,28.8870588 19.3132,28.2615686 18.506,28.2615686 L18.506,28.2615686 L18.506,28.2615686 Z M6.19,44.5898039 L3.204,44.5898039 L3.204,35.782353 L6.19,35.782353 L6.19,44.5898039 L6.19,44.5898039 Z M4.6972,34.5792157 L4.6772,34.5792157 C3.6756,34.5792157 3.0276,33.9027451 3.0276,33.0576471 C3.0276,32.1937255 3.6956,31.5360784 4.7168,31.5360784 C5.7384,31.5360784 6.3668,32.1937255 6.3868,33.0576471 C6.3868,33.9027451 5.738,34.5792157 4.6972,34.5792157 L4.6972,34.5792157 L4.6972,34.5792157 Z M16.9576,44.5898039 L13.9716,44.5898039 L13.9716,39.8768627 C13.9716,38.6933334 13.5396,37.8854902 12.4592,37.8854902 C11.6344,37.8854902 11.1432,38.4301961 10.9268,38.9564705 C10.848,39.1443137 10.8288,39.4070588 10.8288,39.6705883 L10.8288,44.5894117 L7.8428,44.5894117 C7.8428,44.5894117 7.882,36.607451 7.8428,35.7819608 L10.8288,35.7819608 L10.8288,37.0286275 C11.2256,36.4286275 11.9352,35.5741177 13.5204,35.5741177 C15.4848,35.5741177 16.958,36.8333333 16.958,39.5388235 L16.958,44.5898039 L16.9576,44.5898039 L16.9576,44.5898039 Z" id="Shape-3" fill="#1783BC"></path>
            </g>
            <g id="dribbble" transform="translate(74.000000, 0.000000)" sketch:type="MSShapeGroup">
                <path d="M10,20 C4.48598029,20 0,15.5140197 0,10 C0,4.4859803 4.48598029,4.4408921e-16 10,4.4408921e-16 C15.5140197,4.4408921e-16 20,4.4859803 20,10 C20,15.5140197 15.5140197,20 10,20 L10,20 L10,20 Z M18.4335258,11.3688745 C18.1413039,11.2766396 15.7897478,10.5753288 13.1130908,11.0037328 C14.2302183,14.0737445 14.6848822,16.5740701 14.7724511,17.0937324 C16.6887669,15.7979948 18.0528669,13.7454968 18.4335258,11.3688745 L18.4335258,11.3688745 L18.4335258,11.3688745 Z M13.3365163,17.8757759 C13.2095577,17.1263944 12.7135509,14.5146274 11.5143885,11.3984982 C11.4956161,11.4049004 11.4768435,11.410977 11.4580711,11.4174878 C6.64037071,13.0962715 4.91091192,16.437237 4.75725942,16.7514866 C6.205456,17.8807675 8.02552192,18.5546248 10.0001085,18.5546248 C11.1833195,18.5545163 12.3109727,18.3125353 13.3365163,17.8757759 L13.3365163,17.8757759 L13.3365163,17.8757759 Z M3.654347,15.7240983 C3.8478233,15.3929207 6.1920005,11.5114588 10.5972481,10.0875689 C10.7085811,10.051543 10.8208907,10.0177959 10.9338513,9.98589349 C10.7194323,9.50062942 10.4859152,9.01493119 10.2413299,8.5363948 C5.97584529,9.81292591 1.8366683,9.75964672 1.4629541,9.75194236 C1.4603498,9.83864323 1.4586137,9.925561 1.4586137,10.0129128 C1.4585051,12.2068015 2.2901385,14.2098181 3.654347,15.7240983 L3.654347,15.7240983 L3.654347,15.7240983 Z M1.63896,8.26359651 C2.0210296,8.26869659 5.5400625,8.28399672 9.53546155,7.2229698 C8.12025258,4.70712705 6.59381921,2.59190937 6.3686575,2.2830852 C3.9790138,3.41019575 2.1928035,5.61309088 1.63896,8.26359651 L1.63896,8.26359651 L1.63896,8.26359651 Z M7.998394,1.70895004 C8.23451542,2.0250445 9.78590655,4.13765789 11.1854898,6.70927559 C14.222731,5.5708798 15.5084855,3.8427232 15.6621381,3.62385521 C14.1538261,2.28558097 12.1703415,1.47152654 10,1.47152654 C9.31084255,1.47152654 8.640783,1.55410392 7.998394,1.70895004 L7.998394,1.70895004 L7.998394,1.70895004 Z M16.6117235,4.61152829 C16.4315943,4.85513696 15.0003255,6.6899605 11.8422025,7.97940451 C12.0409957,8.38632322 12.2315422,8.80007809 12.4089587,9.21654586 C12.471787,9.36423019 12.5330961,9.51115501 12.5929945,9.65732023 C15.4350232,9.29999134 18.259039,9.87271579 18.5406268,9.93228868 C18.5217457,7.91625072 17.8013369,6.06504188 16.6117235,4.61152829 L16.6117235,4.61152829 L16.6117235,4.61152829 Z" id="Shape" fill="#D5DCE1"></path>
                <path d="M10,48 C4.48598029,48 0,43.5140197 0,38 C0,32.4859803 4.48598029,28 10,28 C15.5140197,28 20,32.4859803 20,38 C20,43.5140197 15.5140197,48 10,48 L10,48 L10,48 Z M18.4335258,39.3688745 C18.1413039,39.2766396 15.7897478,38.5753288 13.1130908,39.0037328 C14.2302183,42.0737445 14.6848822,44.5740701 14.7724511,45.0937325 C16.6887669,43.7979948 18.0528669,41.7454968 18.4335258,39.3688745 L18.4335258,39.3688745 L18.4335258,39.3688745 Z M13.3365163,45.8757758 C13.2095577,45.1263946 12.7135509,42.5146274 11.5143885,39.3984982 C11.4956161,39.4049005 11.4768435,39.410977 11.4580711,39.4174878 C6.64037071,41.0962715 4.91091192,44.437237 4.75725942,44.7514867 C6.205456,45.8807675 8.02552192,46.554625 10.0001085,46.554625 C11.1833195,46.5545163 12.3109727,46.3125355 13.3365163,45.8757758 L13.3365163,45.8757758 L13.3365163,45.8757758 Z M3.654347,43.7240983 C3.8478233,43.3929207 6.1920005,39.5114588 10.5972481,38.0875689 C10.7085811,38.051543 10.8208907,38.017796 10.9338513,37.9858935 C10.7194323,37.5006294 10.4859152,37.0149312 10.2413299,36.5363948 C5.97584529,37.8129259 1.8366683,37.7596467 1.4629541,37.7519424 C1.4603498,37.8386432 1.4586137,37.925561 1.4586137,38.0129129 C1.4585051,40.2068015 2.2901385,42.2098181 3.654347,43.7240983 L3.654347,43.7240983 L3.654347,43.7240983 Z M1.63896,36.2635965 C2.0210296,36.2686965 5.5400625,36.2839967 9.53546155,35.2229698 C8.12025258,32.7071271 6.59381921,30.5919095 6.3686575,30.2830852 C3.9790138,31.4101958 2.1928035,33.6130909 1.63896,36.2635965 L1.63896,36.2635965 L1.63896,36.2635965 Z M7.998394,29.70895 C8.23451542,30.0250445 9.78590655,32.1376579 11.1854898,34.7092755 C14.222731,33.5708798 15.5084855,31.8427233 15.6621381,31.6238552 C14.1538261,30.285581 12.1703415,29.4715265 10,29.4715265 C9.31084255,29.4715265 8.640783,29.5541039 7.998394,29.70895 L7.998394,29.70895 L7.998394,29.70895 Z M16.6117235,32.6115283 C16.4315943,32.8551369 15.0003255,34.6899605 11.8422025,35.9794045 C12.0409957,36.3863232 12.2315422,36.8000781 12.4089587,37.2165459 C12.471787,37.3642302 12.5330961,37.511155 12.5929945,37.6573202 C15.4350232,37.2999913 18.259039,37.8727158 18.5406268,37.9322887 C18.5217457,35.9162507 17.8013369,34.065042 16.6117235,32.6115283 L16.6117235,32.6115283 L16.6117235,32.6115283 Z" id="Shape" fill="#EA4C89"></path>
            </g>
            <g id="twitter" sketch:type="MSShapeGroup">
                <path d="M26,2.36749007 C25.04346,2.76912664 24.01529,3.04045282 22.93642,3.16251884 C24.03765,2.53766881 24.88356,1.54822038 25.28175,0.369151251 C24.25098,0.947857382 23.10945,1.36795151 21.89434,1.59436429 C20.92142,0.613037186 19.5351,0 18.00084,0 C15.05504,0 12.66655,2.26055925 12.66655,5.04888177 C12.66655,5.44461193 12.71374,5.83000582 12.80461,6.1995262 C8.37135005,5.98898697 4.44093,3.97883532 1.80999,0.924108645 C1.35083,1.66979419 1.08771,2.53705355 1.08771,3.46239271 C1.08771,5.21413851 2.02943,6.75952868 3.46073,7.66493367 C2.58635,7.63872394 1.76384,7.41157281 1.04468,7.03343901 C1.04416,7.05448056 1.04416,7.07564523 1.04416,7.09693296 C1.04416,9.54317527 2.88288,11.5838434 5.32311,12.0477435 C4.87552,12.1631648 4.40427,12.2248132 3.91781,12.2248132 C3.57409,12.2248132 3.23999,12.193066 2.91421,12.134248 C3.59307,14.1400929 5.56296,15.5999631 7.89724,15.6405697 C6.07165,16.9948626 3.77169,17.8019503 1.27244,17.8019503 C0.841880005,17.8019503 0.417299998,17.7780785 0,17.7313194 C2.36067,19.1639955 5.16451,20 8.17687,20 C17.98836,20 23.35385,12.3063955 23.35385,5.6342326 C23.35385,5.41532593 23.34865,5.19764973 23.33838,4.98095795 C24.38059,4.26923431 25.28487,3.37994892 26,2.36749007 L26,2.36749007 L26,2.36749007 Z" id="Shape" fill="#D5DCE1"></path>
                <path d="M26,30.3674901 C25.04346,30.7691266 24.01529,31.0404528 22.93642,31.1625189 C24.03765,30.5376688 24.88356,29.5482203 25.28175,28.3691513 C24.25098,28.9478573 23.10945,29.3679515 21.89434,29.5943642 C20.92142,28.6130372 19.5351,28 18.00084,28 C15.05504,28 12.66655,30.2605592 12.66655,33.0488818 C12.66655,33.4446119 12.71374,33.8300058 12.80461,34.1995262 C8.37135005,33.9889869 4.44093,31.9788353 1.80999,28.9241087 C1.35083,29.6697942 1.08771,30.5370535 1.08771,31.4623927 C1.08771,33.2141385 2.02943,34.7595287 3.46073,35.6649337 C2.58635,35.6387239 1.76384,35.4115728 1.04468,35.033439 C1.04416,35.0544806 1.04416,35.0756452 1.04416,35.096933 C1.04416,37.5431753 2.88288,39.5838435 5.32311,40.0477435 C4.87552,40.1631648 4.40427,40.2248131 3.91781,40.2248131 C3.57409,40.2248131 3.23999,40.193066 2.91421,40.134248 C3.59307,42.1400929 5.56296,43.5999631 7.89724,43.6405697 C6.07165,44.9948626 3.77169,45.8019503 1.27244,45.8019503 C0.841880005,45.8019503 0.417299998,45.7780785 0,45.7313194 C2.36067,47.1639955 5.16451,48 8.17687,48 C17.98836,48 23.35385,40.3063955 23.35385,33.6342326 C23.35385,33.4153259 23.34865,33.1976497 23.33838,32.9809579 C24.38059,32.2692343 25.28487,31.3799489 26,30.3674901 L26,30.3674901 L26,30.3674901 Z" id="Shape" fill="#2CAAE1"></path>
            </g>
            <g id="github" transform="translate(142.000000, 0.000000)" sketch:type="MSShapeGroup">
                <path d="M0,38.2540163 C0,42.7833823 2.864948,46.6260422 6.839165,47.9824601 C7.339472,48.0762447 7.521792,47.7596422 7.521792,47.4877293 C7.521792,47.2447701 7.513198,46.5996059 7.508287,45.744213 C4.726826,46.3635705 4.139963,44.3695415 4.139963,44.3695415 C3.685083,43.1849575 3.029466,42.8702433 3.029466,42.8702433 C2.121547,42.2338914 3.09822,42.24648 3.09822,42.24648 C4.101903,42.3194936 4.629835,43.3032901 4.629835,43.3032901 C5.521792,44.8699372 6.96992,44.4173782 7.540209,44.155536 C7.631062,43.492748 7.888889,43.0408184 8.174954,42.7846411 C5.954573,42.5259461 3.620012,41.6460054 3.620012,37.717114 C3.620012,36.5979904 4.009822,35.6828017 4.649478,34.9658829 C4.546348,34.7065584 4.203192,33.6642252 4.747084,32.2524175 C4.747084,32.2524175 5.586863,31.9767279 7.497237,33.3035628 C8.294659,33.0757097 9.150399,32.9624126 10.000614,32.9580066 C10.849601,32.9624126 11.705341,33.0757097 12.50399,33.3035628 C14.413137,31.9767279 15.251075,32.2524175 15.251075,32.2524175 C15.796808,33.6642252 15.453652,34.7065584 15.350522,34.9658829 C15.991405,35.6828017 16.37876,36.5979904 16.37876,37.717114 C16.37876,41.6560762 14.040516,42.522799 11.812769,42.7764585 C12.171884,43.093061 12.491713,43.7187127 12.491713,44.6754438 C12.491713,46.0457093 12.479435,47.1516147 12.479435,47.4877293 C12.479435,47.7621601 12.6593,48.0812801 13.166974,47.981201 C17.136894,46.6222655 20,42.7821234 20,38.2540163 C20,32.5904205 15.522406,28 9.999386,28 C4.477594,28 0,32.5904205 0,38.2540163 L0,38.2540163 L0,38.2540163 Z" id="Path-2" fill="#191717"></path>
                <path d="M0,10.2540163 C0,14.7833822 2.864948,18.6260419 6.839165,19.9824598 C7.339472,20.0762446 7.521792,19.7596422 7.521792,19.4877292 C7.521792,19.2447699 7.513198,18.5996059 7.508287,17.7442128 C4.726826,18.3635703 4.139963,16.3695414 4.139963,16.3695414 C3.685083,15.1849574 3.029466,14.8702433 3.029466,14.8702433 C2.121547,14.2338913 3.09822,14.2464799 3.09822,14.2464799 C4.101903,14.3194935 4.629835,15.3032899 4.629835,15.3032899 C5.521792,16.8699369 6.96992,16.417378 7.540209,16.1555359 C7.631062,15.4927479 7.888889,15.0408184 8.174954,14.784641 C5.954573,14.525946 3.620012,13.6460053 3.620012,9.7171139 C3.620012,8.59799045 4.009822,7.68280166 4.649478,6.96588287 C4.546348,6.70655841 4.203192,5.66422516 4.747084,4.2524175 C4.747084,4.2524175 5.586863,3.97672792 7.497237,5.30356274 C8.294659,5.07570971 9.150399,4.96241262 10.000614,4.95800662 C10.849601,4.96241262 11.705341,5.07570971 12.50399,5.30356274 C14.413137,3.97672792 15.251075,4.2524175 15.251075,4.2524175 C15.796808,5.66422516 15.453652,6.70655841 15.350522,6.96588287 C15.991405,7.68280166 16.37876,8.59799045 16.37876,9.7171139 C16.37876,13.6560761 14.040516,14.5227989 11.812769,14.7764584 C12.171884,15.0930609 12.491713,15.7187126 12.491713,16.6754436 C12.491713,18.045709 12.479435,19.1516144 12.479435,19.4877292 C12.479435,19.7621599 12.6593,20.0812801 13.166974,19.981201 C17.136894,18.6222654 20,14.7821234 20,10.2540163 C20,4.5904205 15.522406,0 9.999386,0 C4.477594,0 0,4.5904205 0,10.2540163 L0,10.2540163 L0,10.2540163 Z" id="Path-copy" fill="#D5DCE1"></path>
            </g>
        </g>
    </g>
</svg>