<?xml version="1.0" encoding="utf-8"?>
<!-- Generator: Adobe Illustrator 15.0.0, SVG Export Plug-In . SVG Version: 6.00 Build 0)  -->
<!DOCTYPE svg PUBLIC "-//W3C//DTD SVG 1.1//EN" "http://www.w3.org/Graphics/SVG/1.1/DTD/svg11.dtd">
<svg version="1.1" id="Layer_1" xmlns="http://www.w3.org/2000/svg" xmlns:xlink="http://www.w3.org/1999/xlink" x="0px" y="0px"
	 width="482px" height="150px" viewBox="0 0 482 150" enable-background="new 0 0 482 150" xml:space="preserve">
<g>
	<g>
		<path d="M7.957,66.964c0.011,1.452,0.083,2.83,0.296,4.272c0.05,0.343,0.478,0.388,0.673,0.149
			c2.197-2.689,3.773-8.647,3.366-12.097c-0.32-2.711-2.435-2.253-3.897-0.501C5.496,62.261,6.049,68.869,6.27,72.995
			c0.236,4.418,0.699,11.295,4.105,14.645c0.133,0.131,0.376,0.199,0.526,0.043c4.181-4.364,6.116-11.445,7.569-17.112
			c1.289-5.03,3.022-13.206-1.407-17.257c-0.194-0.178-0.536-0.181-0.635,0.112c-3.354,9.959-1.092,22.178,3.561,31.37
			c1.385,2.736,5.394,8.547,7.45,3.237c2.385-6.158,0.879-14.7-0.149-20.965c-0.96-5.852-2.5-14.938-7.966-18.455
			c-0.171-0.11-0.399-0.08-0.52,0.092c-4.533,6.459-4.303,16.17-4.486,23.681c-0.235,9.633,0.511,19.257,0.341,28.886
			c-0.052,2.956,0.169,5.909,0.109,8.867c-0.037,1.854-0.321,3.634-0.795,5.431c-0.901,3.417-1.086,0.151-1.333-0.997
			c-1.136-5.264-0.464-11.027,0.35-16.289c0.763-4.932,2.043-10.084,4.531-14.455c1.725-3.03,3.328,1.888,4.152,3.599
			c1.53,3.175,2.539,6.622,3.688,9.945c0.119,0.345,1.918,3.027,1.11,1.046c-0.326-0.799-0.643-1.601-0.962-2.402
			c-0.779-1.955-1.56-3.908-2.355-5.856c-1.962-4.804-4.062-9.554-6.5-14.136c-2.193-4.121-6.037-11.859-11.794-9.832
			c-7.099,2.5-1.74,18.3-0.431,22.589c2.158,7.072,7.084,18.748,15.812,19.39c7.642,0.562,12.095-10.663,14.444-16.156
			c1.051-2.457,1.952-4.978,2.835-7.499c0.11-0.314,0.507-3.255,0.778-1.85c0.334,1.732,0.646,3.469,0.96,5.204
			c1.423,7.87,2.648,15.775,3.846,23.682c1.466,9.675,3.417,19.613,3.324,29.443c-0.016,1.631-0.158,3.284-0.653,4.844
			c-1.085,3.416-4.441-0.404-5.515-1.633c-3.559-4.073-5.766-9.362-7.63-14.375c-4.394-11.812-6.29-24.855-6.14-37.42
			c0.118-9.924,3.224-19.14,5.491-28.694c1.531-6.45,3.5-14.543,0.402-20.835c-2.535-5.148-9.651-5.549-14.116-3.064
			c-7.113,3.959-13.554,12.814-14.978,20.82c-1.178,6.62,0.288,14.916,8.6,13.804c7.396-0.989,11.816-6.759,16.198-12.104
			c1.67-2.037,3.407-4.003,5.407-5.721c3.798-3.262,6.394-0.551,8.571,2.855c2.825,4.42,5.03,9.333,7.007,14.181
			c0.099,0.242,0.391,0.251,0.578,0.125c7.431-5.061,9.994-15.609,12.213-23.841c2.445-9.069,4.34-18.349,5.286-27.698
			c0.499-4.931,1.953-15.706-2.791-19.344C59.334-0.96,53.161,6.438,50.282,9.829c-2.87,3.379-5.313,7.167-7.382,11.081
			c-2.022,3.827,0.676,6.014,3.014,9.306c4.78,6.73,5.665,15.178,2.471,22.704c-2.193,5.168-6.25,9.928-9.751,14.286
			c-1.185,1.474-4.597,6.001-7.014,3.729c-1.92-1.806-1.852-6.426-2.087-8.946c-0.329-3.522-0.455-18.813,6.24-16.082
			c3.79,1.546,6.832,5.78,9.35,8.836c2.998,3.639,5.715,7.518,8.312,11.449c7.299,11.046,9.434,24.599,5.918,37.417
			c-1.982,7.225-6.946,12.767-14.415,14.344c-10.217,2.156-11.014-9.817-12.644-16.711c-0.046-0.196-0.224-0.342-0.432-0.303
			c-5.973,1.125-10.014,9.293-12.99,13.838c-4.053,6.188-10.845,11.729-11.789,19.412c-1.712,13.936,19.156,11.481,26.619,9.021
			c5.87-1.937,10.358-6.141,8.007-12.681c-1.622-4.511-4.03-8.709-5.803-13.172c-2.684-6.755-4.953-13.672-6.982-20.649
			c-1.745-5.998-3.181-12.082-4.429-18.201c-1.042-5.108-2.215-10.841-0.89-16c1.38-5.37,8.646-7.444,12.642-10.522
			c0.105-0.081,0.145-0.223,0.126-0.35c-0.506-3.392-2.054-5.57-4.903-7.431c-4.09-2.672-10.22-4.726-8.316-10.965
			c2.3-7.538,15.312-11.301,22.028-12.826c29.484-6.695,14.223,47.474,11.264,59.6c-1.723,7.058-3.543,14.096-5.415,21.115
			c-1.671,6.271-2.792,12.687-5.39,18.669c-1.762,4.057-2.525,1.732-3.813-0.951c-1.064-2.218-1.691-4.642-2.279-7.019
			c-1.323-5.35-1.897-10.896-2.318-16.378c-0.906-11.798-0.168-23.038,4.005-34.232c1.184-3.175,12.393-23.438,15.263-12.172
			c1.707,6.699,0.366,14.593-0.432,21.334c-0.851,7.185-2.066,14.326-3.384,21.438c-0.779,4.204-5.648,27.976-11.954,20.611
			c-2.717-3.173-3.287-8.521-3.914-12.485c-0.728-4.599-1.051-9.298-1.05-13.951c0.001-12.924,5.162-24.34,13.258-34.192
			c3.483-4.238,7.556-7.842,11.455-11.671c2.669-2.621,5.738-4.735,9.192-6.172c3.017-1.255,6.206,0.495,9.125-0.545
			c5.498-1.959,5.293-8.916,4.15-13.584C81.374,13.407,77.23,7.231,71.904,3.343c-4.753-3.47-10.338-3.335-14.58,0.783
			c-7.859,7.631-10.353,18.4-8.472,28.909c2.01,11.229,8.568,21.359,14.401,30.933c7.591,12.461,12.153,25.207,10.116,40.022
			c-0.523,3.81-1.72,7.521-2.888,11.175c-1.041,3.254-3.512,10.221-7.117,3.373c-2.24-4.254-2.658-9.646-3.056-14.348
			c-0.865-10.236-0.566-21.558,2.268-31.498c1.528-5.359,3.875-10.565,6.593-15.415c1.355-2.419,2.962-4.693,4.926-6.656
			c2.426-2.425,2.705-1.541,3.408,1.087c2.238,8.375,2.748,17.511,2.801,26.133c0.024,3.901-0.134,7.896-1.046,11.704
			c-1.457,6.079-5.727,1.948-8.479-0.97C63.611,80.974,57.21,72.312,58.83,61.333c1.646-11.155,9.877-22.16,15.939-31.499
			c2.081-3.205,6.661-9.881,9.226-3.663c1.62,3.927,1.716,8.68,1.967,12.855c1.174,19.464,1.598,39.71-0.983,59.041
			c-1.412,10.569-3.95,21.817-10.403,30.54c-1.359,1.838-3.01,3.399-4.814,4.786c-1.026,0.789-1.871-3.521-2.021-4.226
			c-1.077-5.035-0.767-10.411-0.476-15.514c1.02-17.871,4.035-37.417,11.432-53.804c1.211-2.684,6.649-13.312,8.752-6.313
			c1.447,4.816,1.262,10.268,1.313,15.232c0.104,10.227-0.034,20.846,2.815,30.749c0.111,0.387,0.697,0.416,0.739-0.029
			c0.889-9.446,1.101-18.923,0.288-28.381c-0.021-0.243-0.324-0.372-0.527-0.272c-3.697,1.806-5.629,7.255-7.141,10.748
			c-3.105,7.174-5.33,14.815-7.049,22.43c-1.693,7.5-3.099,15.24-2.829,22.96c0.115,3.293,0.562,8.177,4.045,9.722
			c7.365,3.266,9.372-22.217,9.772-25.276c1.168-8.926,1.98-17.896,2.982-26.842c0.75-6.692,1.231-13.858,3.476-20.257
			c-0.264,0.751,1.28,3.304,1.604,4.201c1.041,2.879,1.688,5.912,2.308,8.903c1.17,5.646,1.874,11.395,2.385,17.134
			c0.238,2.676,0.379,5.36,0.441,8.046c0.014,0.589,0.721,2.764,0.443,1.341c-0.403-2.062-0.631-4.157-0.855-6.243
			c-0.844-7.851-0.692-15.811-0.635-23.694c0.043-5.998-0.275-12.065,0.311-18.042c0.115-1.177,1.206-8.799,3.046-5.465
			c1.559,2.825,2.244,6.1,2.832,9.239c2.213,11.8,0.761,24.169,4.499,35.702c0.072,0.222,0.421,0.28,0.578,0.124
			c2.289-2.278,2.982-1.633,4.274,1.205c1.28,2.812,1.448,6.151,1.428,9.176c-0.035,5.412-1.523,10.844-3.691,15.768
			c-1.397,3.174-6.778,12.127-10.177,5.965c-2.416-4.379-2.59-10.336-2.955-15.194c-0.563-7.495-0.506-15.043-0.331-22.553
			c0.246-10.555,0.464-21.357,2.301-31.779c0.71-4.029,1.604-8.304,3.627-11.908c3.957-7.047,7.64,6.197,7.879,8.92
			c0.807,9.159-2.132,19.523,1.728,28.223c0.137,0.31,0.565,0.255,0.687-0.03c2.994-7.002,3.671-14.719,4.842-22.171
			c0.631-4.021,1.45-8,2.89-11.814c1.133-3.002,0.527,3.335,0.543,4.725c0.035,2.981-0.098,5.963-0.25,8.939
			c-1,19.587-5.298,39.102-2.623,58.736c0.048,0.354,0.622,0.429,0.717,0.065c3.434-13.075,5.131-26.48,6.474-39.909
			c0.717-7.167,1.312-14.347,1.981-21.519c0.33-3.53,0.691-7.057,1.078-10.581c0.337-3.069,1.886-7.816,1.134-10.748
			c3.187,12.425,1.404,26.049,1.631,38.741c0.271,15.165,1.729,30.476,4.755,45.341c0.055,0.27,0.392,0.414,0.608,0.22
			c5.85-5.225,7.919-13.206,9.409-20.622c2.062-10.266,2.623-20.777,4.354-31.099c0.779-4.645,1.871-9.249,3.715-13.593
			c1.554-3.662,1.87,1.956,2.059,3.502c0.39,3.195,0.081,6.475-0.317,9.652c-1.289,10.297-5.02,21.379-10.604,30.172
			c-2.939,4.63-7.128,9.083-12.056,11.566c-6.849,3.451-9.062-4.515-9.617-9.417c-0.891-7.862,0.345-16.101,1.489-23.887
			c1.207-8.205,3.06-16.354,5.47-24.286c1.866-6.137,4.98-18.043,12.211-19.948c7.395-1.948,9.435,12.558,10.321,17.036
			c1.389,7.017,1.921,14.583,4.838,21.19c0.105,0.238,0.505,0.303,0.643,0.054c1.246-2.262,1.924-4.607,2.54-7.114
			c0.391-1.594,1.264,0.883,1.335,1.036c0.643,1.396,1.006,2.912,1.358,4.4c1.149,4.857,1.368,9.957,1.72,14.917
			c0.58,8.166,0.232,19.254,6.15,25.732c0.174,0.19,0.557,0.173,0.635-0.111c1.681-6.145,1.638-12.85,1.351-19.164
			c-0.315-6.948-0.713-14.487-3.404-20.998c-0.096-0.232-0.396-0.264-0.578-0.125c-4.614,3.534-3.73,11.859-3.109,16.857
			c0.602,4.843,2.348,14.153,7.67,16.289c5.293,2.124,8.932-5.312,11.025-8.893c2.053-3.514,3.883-7.149,6.013-10.619
			c0.926-1.508,1.949-2.961,3.22-4.198c2.58-2.511,4.003,0.927,4.869,2.956c1.759,4.122,3.02,8.485,4.251,12.788
			c0.46,1.606,0.865,3.22,1.419,4.799c1.538,4.381-5.126,6.067-7.988,6.14c-14.603,0.367-12.214-18.5-10.626-28.203
			c0.87-5.315,2.31-10.467,4.413-15.42c1.025-2.415,3-7.217,6.33-7.188c2.927,0.025,4.935,5.211,5.941,7.321
			c1.798,3.769,2.865,7.778,4.137,11.738c0.504,1.567,1.617,7.301,3.627,7.858c0.858,0.238,2.26,0.75,2.838-0.31
			c1.842-3.377,3.49-6.773,5.786-9.888c4.203-5.702,7.777,1.87,8.635,5.379c0.771,3.152-0.396,6.458-1.622,9.31
			c-1.893,4.406-4.893,8.249-6.826,12.647c-0.048,0.111-0.024,0.286,0.065,0.371c5.384,5.123,10.32-2.464,13.321-6.557
			c1.286-1.754,2.548-3.531,4.139-5.026c3.668-3.45,5.117,0.866,6.173,3.514c1.057,2.649,3.153,6.2,6.432,5.533
			c4.208-0.855,7.133-10.663,12.726-7.406c4.927,2.869,11.007,4.542,16.431,6.203c8.271,2.533,15.295,1.299,23.6-0.099
			c16.628-2.798,33.823-2.648,50.623-2.848c41.191-0.489,82.404,0.168,123.591,0.712c0.479,0.007,0.551-0.736,0.07-0.742
			c-43.873-0.58-87.791-1.365-131.667-0.595c-14.926,0.262-30.147,0.386-44.876,3.114c-6.866,1.272-12.742,1.959-19.618,0.174
			c-6.16-1.599-13.039-3.802-18.552-7.013c-2.498-1.454-5.481,1.381-7.118,2.95c-2.105,2.019-5.309,7.428-9.068,2.966
			c-1.93-2.29-2.353-5.22-3.731-7.774c-2.777-5.145-10.656,7.135-11.738,8.557c-1.526,2.006-3.196,3.956-5.469,5.123
			c-0.879,0.059-1.758,0.118-2.637,0.177c-1.864-1.504-1.931-3.081-0.2-4.729c0.691-1.279,1.462-2.521,2.205-3.771
			c2.324-3.915,5.241-8.737,4.656-13.51c-0.344-2.808-1.743-8.648-5.003-9.609c-2.675-0.789-4.351,1.437-5.796,3.396
			c-1.163,1.578-2.314,3.36-3.22,5.099c-0.323,0.62-2.589,6.357-4.604,2.953c-0.435-0.735-0.731-1.572-1.051-2.36
			c-1.549-3.826-2.482-7.864-3.854-11.75c-1.274-3.608-5.155-14.727-10.894-11.011c-3.24,2.098-4.95,7.646-6.119,10.973
			c-1.598,4.549-2.528,9.368-3.23,14.125c-1.021,6.915-2.395,18.864,3.58,24.136c2.24,1.976,6.543,2.452,9.344,2.191
			c3.867-0.36,5.714-1.533,7.618-4.891c1.045-1.845-0.963-5.134-1.456-6.889c-1.138-4.058-2.426-8.084-3.927-12.021
			c-1.635-4.287-3.552-7.361-7.391-3.142c-5.312,5.84-7.557,14.024-12.539,20.169c-7.906,9.749-12.658-9.043-13.317-14.352
			c-0.504-4.053-0.486-8.47,0.935-12.345c1.059-2.888,1.709-2.679,2.517,0.142c0.701,2.448,1.079,4.994,1.434,7.511
			c0.774,5.49,1,11.067,0.939,16.606c-0.026,2.351-0.178,4.697-0.412,7.036c-0.235,2.36,0.042,6.577-2.238,2.663
			c-4.148-7.123-3.69-17.288-4.27-25.242c-0.475-6.523-0.623-14.396-4.618-19.916c-0.153-0.212-0.572-0.156-0.635,0.112
			c-0.388,1.651-0.786,3.292-1.238,4.926c-0.196,0.706-0.78,4.479-1.612,2.348c-0.83-2.124-1.294-4.408-1.771-6.631
			c-1.081-5.042-1.81-10.154-2.855-15.204c-0.95-4.59-2.533-14.243-8.422-15.279c-4.961-0.874-8.301,4.327-10.238,8.114
			c-3.814,7.458-6.066,15.718-7.89,23.861c-1.475,6.588-2.575,13.209-3.363,19.912c-0.885,7.52-1.945,16.256,0.889,23.493
			c2.828,7.222,10.179,3.591,14.431-0.031c6.745-5.745,10.578-13.818,13.575-21.965c3.621-9.841,7.178-22.65,3.063-32.849
			c-0.099-0.245-0.509-0.297-0.643-0.054c-10.531,19.129-3.708,43.687-14.563,62.743c-0.468,0.821-1.027,1.582-1.591,2.338
			c-1.909,2.56-2.02,1.826-2.571-1.047c-0.855-4.459-1.474-8.961-2.025-13.466c-1.129-9.235-1.705-18.573-1.969-27.871
			c-0.378-13.306,1.394-27.115-1.954-40.166c-0.104-0.407-0.675-0.397-0.739,0.03c-3.807,25.696-3.982,51.87-9.462,77.324
			c-0.359,1.63-0.746,3.252-1.159,4.868c0.026-0.106-0.273-3.195-0.294-3.413c-0.372-4.018-0.354-8.064-0.261-12.093
			c0.152-6.574,0.831-13.137,1.503-19.674c1.292-12.564,2.745-25.122,1.962-37.77c-0.025-0.413-0.573-0.354-0.717-0.064
			c-5.191,10.445-4.164,22.841-7.791,33.795c-1.231,3.719-1.654-2.529-1.804-3.72c-0.367-2.909-0.264-5.89-0.2-8.815
			c0.113-5.166,0.465-10.333-0.17-15.478c-0.39-3.16-3.728-12.377-8.108-8.084c-4.344,4.257-4.856,13.89-5.547,19.55
			c-1.441,11.803-1.543,24-1.487,35.868c0.032,6.745,0.253,13.548,1.284,20.224c0.486,3.147,1.144,8.097,4.119,10.008
			c3.766,2.418,8.025-5.029,9.116-7.296c4.201-8.73,7.117-21.995,0.444-30.265c-0.12-0.149-0.384-0.185-0.526-0.043
			c-1.819,1.813-2.388,1.553-3.021-1.005c-0.533-2.152-0.821-4.366-1.101-6.562c-0.606-4.758-0.803-9.57-1.134-14.353
			c-0.525-7.578-1.053-15.883-5.238-22.465c-0.153-0.24-0.454-0.291-0.643-0.054c-4.876,6.115-2.953,16.778-3.001,24.032
			c-0.075,11.091-0.364,22.336,1.774,33.272c0.078,0.401,0.73,0.403,0.739-0.029c0.135-7.251-0.641-14.521-1.687-21.687
			c-0.97-6.645-2.005-14.412-5.632-20.235c-0.165-0.264-0.562-0.295-0.687,0.031c-2.156,5.605-2.625,11.966-3.337,17.874
			c-1.072,8.886-1.874,17.802-2.937,26.688c-0.91,7.614-1.769,15.507-4.237,22.804c-0.607,1.795-1.61,4.746-3.746,5.189
			c-2.894,0.601-4.042-3.91-4.402-5.831c-1.346-7.188,0.238-15.178,1.623-22.237c1.649-8.405,4.048-16.73,7.217-24.69
			c1.175-2.952,2.516-5.862,4.214-8.553c0.603-0.955,1.298-1.853,2.119-2.63c1.005-0.953,0.585-0.668,0.707,0.749
			c0.253,2.943,0.324,5.899,0.368,8.852c0.053,3.584-0.086,7.17-0.276,10.749c-0.092,1.724-0.236,3.444-0.38,5.164
			c-0.098,1.169-0.447-2.576-0.453-2.602c-1.306-6.331-1.593-13.028-1.73-19.479c-0.163-7.625,1.803-19.563-3.145-26.066
			c-0.098-0.128-0.303-0.17-0.445-0.096c-6.022,3.141-8.7,11.26-10.787,17.215c-2.616,7.468-4.302,15.26-5.677,23.041
			c-1.465,8.289-2.563,16.663-3.043,25.069c-0.346,6.069-0.992,14.161,2.433,19.552c0.137,0.215,0.364,0.274,0.578,0.124
			c15.49-10.806,16.899-35.871,17.704-52.836c0.45-9.5-0.096-18.951-0.155-28.444c-0.05-8.069,0.124-16.333-1.462-24.282
			c-0.686-3.438-2.57-8.344-6.645-5.381c-3.209,2.333-5.339,6.68-7.333,9.986c-2.669,4.424-5.383,8.837-7.913,13.342
			c-4.909,8.739-8.594,19.544-3.357,28.992c3.4,6.134,8.361,12.618,13.923,16.916c6.865,5.305,6.771-10.727,6.819-13.824
			c0.092-5.898-0.375-11.819-1.085-17.669c-0.521-4.286-1.008-9.039-2.826-13.015c-0.088-0.193-0.311-0.252-0.497-0.177
			c-7.683,3.108-11.634,15.13-14.093,22.222c-3.009,8.678-3.346,18.346-3.26,27.438c0.072,7.573,0.097,17.93,5.382,23.998
			c4.568,5.245,8.805-14.345,9.146-15.97c2.634-12.535-0.415-25.637-6.585-36.648c-5.934-10.589-13.019-20.417-16.63-32.152
			c-1.912-6.211-2.258-12.736-0.632-19.039c1.538-5.965,6.234-14.245,12.508-16.185c8.237-2.546,15.448,7.874,18.276,14.041
			c1.586,3.458,2.497,7.355,2.008,11.156c-0.255,1.986-1.243,3.71-2.729,5.02c-2.505,2.208-6.643-0.038-9.51,0.901
			c-9.504,3.113-17.698,12.875-23.774,20.541c-12.204,15.396-14.66,36.345-8.805,54.898c1.079,3.419,4.521,9.218,8.396,4.808
			c4.75-5.407,5.695-13.796,6.98-20.656c2.511-13.398,5.906-28.139,4.236-41.813c-0.296-2.427-1.489-7.037-4.937-5.714
			c-7.98,3.062-11.829,14.432-13.992,21.743c-2.918,9.859-2.805,20.012-2.026,30.161c0.631,8.223,1.247,20.078,7.284,26.473
			c0.162,0.172,0.45,0.181,0.59-0.027c2.945-4.348,4.205-9.555,5.466-14.586c1.771-7.064,3.581-14.117,5.385-21.174
			c3.48-13.609,7.217-27.495,8.323-41.541c0.621-7.89,0.469-17.968-5.784-23.762c-4.506-4.175-11.142-3.185-16.477-1.598
			c-6.474,1.926-14.314,4.967-18.205,10.841c-4.035,6.092,2.479,10.333,7.062,12.849c2.587,1.421,4.426,3.299,5.221,6.225
			c0.51,1.876-3.562,3.514-4.83,4.245c-2.217,1.279-4.461,2.428-6.163,4.388c-5.521,6.356-0.666,20.037,0.886,26.766
			c3.098,13.433,7.18,27.351,13.417,39.686c1.775,3.511,4.167,7.966,2.044,11.929c-1.241,2.316-4.062,3.581-6.367,4.558
			c-4.211,1.784-9.561,2.752-14.138,2.379c-4.671-0.381-9.141-1.249-11.576-5.782c-3.533-6.58,3.228-13.847,7.213-18.479
			c2.995-3.481,5.192-7.705,7.874-11.432c1.56-2.167,3.289-4.216,5.37-5.9c3.543-2.867,3.647,5.109,4.139,7.252
			c2.059,8.975,10.244,10.285,17.511,6.358c9.16-4.95,11.01-16.948,10.911-26.355c-0.099-9.321-3.205-17.594-8.265-25.252
			c-4.438-6.717-9.443-14.371-16.177-19.005c-5.743-3.953-7.88,3.939-8.45,8.341c-0.464,3.58-1.45,18.643,4.72,18.064
			c2.569-0.241,4.932-3.78,6.37-5.57c3.056-3.803,6.39-7.926,8.524-12.32c2.182-4.492,3.011-8.881,2.375-13.846
			c-0.362-2.827-1.472-5.605-2.683-8.154c-1.101-2.315-6.424-7.213-5.376-9.608C45.156,17.421,55.688-0.969,63.378,3.08
			c3.539,1.864,3.375,9.014,3.395,12.277c0.03,5.13-0.686,10.274-1.493,15.329c-1.375,8.6-3.328,17.233-6.024,25.521
			c-0.979,3.009-2.165,5.939-3.524,8.795c-0.239,0.502-5.68,9.08-6.334,7.475c-2.014-4.94-4.408-9.805-7.282-14.302
			c-3.916-6.126-8.018-3.843-12.285,0.983c-5.323,6.021-12.108,16.922-21.884,14.393c-6.892-1.783-4.114-13.335-2.335-17.718
			c2.292-5.648,6.591-10.678,11.42-14.317c3.957-2.982,9.664-3.614,13.479,0.03c3.159,3.018,2.812,8.541,2.455,12.473
			c-0.804,8.843-3.915,17.357-5.88,25.974c-2.398,10.512-1.474,21.854,0.263,32.388c1.685,10.217,4.682,20.83,10.334,29.601
			c0.949,1.473,6.572,9.36,8.589,4.593c2.499-5.905,0.502-14.362-0.288-20.448c-1.967-15.144-4.388-30.288-7.279-45.282
			c-0.068-0.354-0.598-0.427-0.717-0.065c-2.815,8.525-6.095,21.269-14.511,25.957c-6.118,3.408-11.648-4.311-14.241-8.692
			c-3.142-5.311-4.825-11.359-6.094-17.35c-0.75-3.539-2.177-17.85,5.691-13.627c3.612,1.938,5.869,6.88,7.689,10.301
			c3.881,7.291,6.667,15.096,9.824,22.71c0.186,0.448,0.84,0.125,0.674-0.32c-2.285-6.105-3.709-13.218-8.21-18.163
			c-0.174-0.19-0.431-0.157-0.59,0.027c-3.813,4.423-5.009,11.012-5.975,16.592c-1.094,6.314-1.791,13.856,0.7,19.945
			c0.099,0.241,0.511,0.301,0.643,0.054c2.304-4.325,2.004-9.224,1.866-13.991c-0.134-4.636-0.08-9.277-0.203-13.915
			c-0.276-10.381-0.693-20.9,0.806-31.211c0.328-2.254,0.856-4.467,1.606-6.616c0.645-1.848,1.044-3.777,2.808-1.94
			c2.534,2.639,3.719,6.782,4.677,10.197c2.064,7.358,2.993,15.447,2.352,23.068c-0.135,1.604-0.689,7.194-3.396,5.333
			C19.828,86.197,18,78.462,16.914,73.835c-1.298-5.526-1.629-11.356-0.671-16.956c0.807-4.714,2.007-1.104,2.528,1.305
			c0.548,2.533,0.213,5.257-0.135,7.795c-0.654,4.762-2.207,9.437-4.037,13.865c-0.782,1.893-1.707,3.728-2.785,5.469
			c-1.422,2.298-1.885,0.777-2.691-1.189c-1.679-4.096-2.062-8.907-2.207-13.28c-0.12-3.608-0.35-10.331,3.145-12.588
			c2.502-1.616,0.435,7.428,0.334,7.781c-0.313,1.093-0.709,2.16-1.134,3.214c-1.175,2.92-0.549-0.585-0.562-2.215
			C8.696,66.558,7.954,66.484,7.957,66.964L7.957,66.964z"/>
	</g>
</g>
</svg>
